<svg width="16" height="16" viewBox="0 0 16 16" fill="none" xmlns="http://www.w3.org/2000/svg">
<path d="M7.99989 4.71681C9.3024 4.71681 10.3583 3.66092 10.3583 2.35841C10.3583 1.05589 9.3024 0 7.99989 0C6.69737 0 5.64148 1.05589 5.64148 2.35841C5.64148 3.66092 6.69737 4.71681 7.99989 4.71681Z" fill="#FFD24D"/>
<path d="M11.2295 7.21725V5.78369H4.77039V7.21725C5.25148 7.21725 5.64145 7.60722 5.64145 8.08829V13.6953C5.64145 14.1764 5.25145 14.5664 4.77039 14.5664V16H11.2295V14.5665C10.7484 14.5665 10.3584 14.1765 10.3584 13.6954V8.08829C10.3584 7.60722 10.7484 7.21725 11.2295 7.21725Z" fill="#FFD24D"/>
</svg>
